<?xml version="1.0"?>
<!--Icons from directory ""-->
<svg xmlns="http://www.w3.org/2000/svg" width="300" height="783" viewBox="0 0 300 783"><svg xmlns:xlink="http://www.w3.org/1999/xlink" height="64" width="48" version="1.1" viewBox="0 0 48 64" id="chevron-left" y="0"><path d="m41.821 10.75l-18.964 18.964 18.964 18.964q0.679 0.679 0.679 1.607t-0.679 1.607l-5.929 5.929q-0.679 0.679-1.607 0.679t-1.607-0.679l-26.5-26.5q-0.679-0.679-0.679-1.607t0.679-1.607l26.5-26.5q0.679-0.679 1.607-0.679t1.607 0.679l5.929 5.929q0.679 0.679 0.679 1.607t-0.679 1.607z" fill="#D1D5D8"/></svg><svg xmlns:xlink="http://www.w3.org/1999/xlink" height="64" width="48" version="1.1" viewBox="0 0 43 64" id="chevron-right" y="64"><path d="m39.536 31.321l-26.5 26.5q-0.679 0.679-1.607 0.679t-1.607-0.679l-5.929-5.929q-0.679-0.679-0.679-1.607t0.679-1.607l18.964-18.964-18.964-18.964q-0.679-0.679-0.679-1.607t0.679-1.607l5.929-5.929q0.679-0.679 1.607-0.679t1.607 0.679l26.5 26.5q0.679 0.679 0.679 1.607t-0.679 1.607z" fill="#D1D5D8"/></svg><svg xmlns:xlink="http://www.w3.org/1999/xlink" height="64" width="64" version="1.1" viewBox="0 0 64 64" id="close" y="128"><path d="m63.416 51.416l-0.001-0.001-19.415-19.416 19.415-19.416s0.001 0 0.001-0.001c0.209-0.209 0.36-0.453 0.457-0.713 0.265-0.711 0.114-1.543-0.458-2.114l-9.172-9.172c-0.572-0.572-1.403-0.723-2.114-0.458-0.26 0.097-0.504 0.248-0.714 0.457l-0.001 0.001-19.416 19.416-19.416-19.416-0.001-0.001c-0.209-0.209-0.453-0.36-0.713-0.457-0.711-0.266-1.543-0.114-2.114 0.457l-9.172 9.172c-0.572 0.572-0.723 1.403-0.458 2.114 0.097 0.26 0.248 0.505 0.457 0.713l0.001 0.001 19.416 19.416-19.416 19.416v0.001c-0.209 0.209-0.36 0.453-0.457 0.713-0.266 0.711-0.114 1.543 0.458 2.114l9.172 9.172c0.572 0.572 1.403 0.723 2.114 0.458 0.26-0.097 0.504-0.248 0.713-0.457l0.001-0.001 19.416-19.416 19.416 19.416s0.001 0 0.001 0.001c0.209 0.209 0.453 0.36 0.713 0.457 0.711 0.265 1.543 0.114 2.114-0.458l9.172-9.172c0.572-0.572 0.723-1.403 0.458-2.114-0.097-0.26-0.248-0.504-0.457-0.713z" fill="#75706b"/></svg><svg xmlns:xlink="http://www.w3.org/1999/xlink" id="linkedin" xml:space="preserve" height="300" viewBox="0 0 512 512" width="300" version="1.1" enable-background="new 0 0 512 512" y="192"><linearGradient id="linkedin-SVGID_1_" y2="557.69" gradientUnits="userSpaceOnUse" y1="-78.99" x2="577.92" x1="8.9756"><stop stop-color="#517FA6" offset="0"/><stop stop-color="#426699" offset="1"/></linearGradient><path d="m271.06 214.36v-0.525c-0.1 0.17-0.247 0.36-0.347 0.525h0.35z" fill="url(#linkedin-SVGID_1_)"/><linearGradient id="linkedin-SVGID_2_" y2="583.69" gradientUnits="userSpaceOnUse" y1="-52.99" x2="548.83" x1="-20.119"><stop stop-color="#517FA6" offset="0"/><stop stop-color="#426699" offset="1"/></linearGradient><path d="m256 7.098c-137.46 0-248.9 111.44-248.9 248.9s111.44 248.9 248.9 248.9 248.9-111.44 248.9-248.9-111.44-248.9-248.9-248.9zm-68.54 345.7h-53.822v-161.91h53.822v161.91zm-26.91-184.01h-0.363c-18.058 0-29.755-12.445-29.755-27.992 0-15.886 12.052-27.969 30.465-27.969 18.421 0 29.747 12.083 30.102 27.969 0 15.55-11.68 27.99-30.45 27.99zm221.01 184.01h-53.822v-86.627c0-21.759-7.792-36.613-27.271-36.613-14.875 0-23.725 10.008-27.624 19.687-1.42 3.464-1.783 8.276-1.783 13.125v90.425h-53.83s0.718-146.72 0-161.91h53.827v22.948c7.149-11.015 19.927-26.754 48.518-26.754 35.43 0 61.983 23.138 61.986 72.871v92.84z" fill="url(#linkedin-SVGID_2_)"/></svg><svg xmlns:xlink="http://www.w3.org/1999/xlink" id="mail" xml:space="preserve" height="40" viewBox="0 0 40 40" width="40" version="1.1" enable-background="new 0 0 40 40" y="492">					<path d="m20 2c9.925 0 18 8.075 18 18s-8.075 18-18 18c-9.925 0-18-8.075-18-18s8.075-18 18-18m0-2c-11.047 0-20 8.954-20 20 0 11.047 8.953 20 20 20 11.045 0 20-8.953 20-20 0-11.046-8.955-20-20-20z" fill="#959595"/>				<path d="m25.221 30.41c-1.947 0.939-3.76 1.275-6.078 1.275-5.541 0-10.342-3.995-10.342-10.546 0-6.85 4.902-12.827 12.424-12.827 5.912 0 9.975 4.097 9.975 9.705 0 4.969-2.787 7.991-6.18 7.991-1.477 0-2.652-0.838-2.719-2.754h-0.102c-1.107 1.848-2.619 2.754-4.5 2.754-2.082 0-3.729-1.611-3.729-4.299 0-4.128 3.158-7.89 7.926-7.89 1.479 0 2.957 0.336 3.83 0.773l-1.076 6.145c-0.402 2.25-0.102 3.291 0.908 3.291 1.578 0.068 3.424-1.982 3.424-5.843 0-4.634-2.855-8.025-8.059-8.025-5.307 0-9.842 4.13-9.842 10.746 0 5.607 3.629 8.898 8.598 8.898 1.814 0 3.627-0.367 4.971-1.109l0.571 1.715zm-2.451-14.138c-0.336-0.102-0.771-0.202-1.342-0.202-2.553 0-4.568 2.484-4.568 5.339 0 1.377 0.639 2.316 1.881 2.316 1.578 0 3.088-2.016 3.426-3.995l0.603-3.458z" fill="#959595"/>	</svg><svg xmlns:xlink="http://www.w3.org/1999/xlink" id="mail_hover" xml:space="preserve" height="40" viewBox="0 0 40 40" width="40" version="1.1" enable-background="new 0 0 40 40" y="532">					<path d="m20 2c9.925 0 18 8.075 18 18s-8.075 18-18 18c-9.925 0-18-8.075-18-18s8.075-18 18-18m0-2c-11.047 0-20 8.954-20 20 0 11.047 8.953 20 20 20 11.045 0 20-8.953 20-20 0-11.046-8.955-20-20-20z" fill="#f00"/>				<path d="m25.221 30.41c-1.947 0.939-3.76 1.275-6.078 1.275-5.541 0-10.342-3.995-10.342-10.546 0-6.85 4.902-12.827 12.424-12.827 5.912 0 9.975 4.097 9.975 9.705 0 4.969-2.787 7.991-6.18 7.991-1.477 0-2.652-0.838-2.719-2.754h-0.102c-1.107 1.848-2.619 2.754-4.5 2.754-2.082 0-3.729-1.611-3.729-4.299 0-4.128 3.158-7.89 7.926-7.89 1.479 0 2.957 0.336 3.83 0.773l-1.076 6.145c-0.402 2.25-0.102 3.291 0.908 3.291 1.578 0.068 3.424-1.982 3.424-5.843 0-4.634-2.855-8.025-8.059-8.025-5.307 0-9.842 4.13-9.842 10.746 0 5.607 3.629 8.898 8.598 8.898 1.814 0 3.627-0.367 4.971-1.109l0.571 1.715zm-2.451-14.138c-0.336-0.102-0.771-0.202-1.342-0.202-2.553 0-4.568 2.484-4.568 5.339 0 1.377 0.639 2.316 1.881 2.316 1.578 0 3.088-2.016 3.426-3.995l0.603-3.458z" fill="#f00"/>	</svg><svg xmlns:xlink="http://www.w3.org/1999/xlink" height="64" width="64" version="1.1" viewBox="0 0 64 64" id="menu" y="572"><path d="m4 12h56v12h-56zm0 16h56v12h-56zm0 16h56v12h-56z" fill="#75706b"/></svg><svg xmlns:xlink="http://www.w3.org/1999/xlink" id="phone" xml:space="preserve" height="40" viewBox="0 0 40 40" width="40" version="1.1" enable-background="new 0 0 40 40" y="636">					<path d="m20 2c9.925 0 18 8.075 18 18s-8.075 18-18 18c-9.925 0-18-8.075-18-18s8.075-18 18-18m0-2c-11.045 0-20 8.954-20 20 0 11.047 8.955 20 20 20 11.047 0 20-8.953 20-20 0-11.046-8.953-20-20-20z" fill="#959595"/>			<path fill-rule="evenodd" clip-rule="evenodd" d="m14.371 9.793c1.207-0.228 1.998 1.133 2.6 2.072 0.586 0.912 1.307 1.982 1.016 3.169-0.162 0.666-0.764 1.029-1.219 1.422-0.449 0.388-1.133 0.744-1.299 1.34-0.271 0.967 0.322 1.982 0.689 2.56 0.834 1.306 1.842 2.483 3.129 3.534 0.623 0.51 1.488 1.191 2.355 1.016 1.295-0.262 1.637-1.859 3.047-2.072 1.342-0.203 2.25 0.77 3.008 1.422 0.73 0.631 1.908 1.439 1.828 2.52-0.047 0.621-0.545 1.006-0.977 1.381-0.439 0.383-0.824 0.813-1.258 1.096-1.051 0.686-2.34 1.022-3.82 0.976-1.451-0.045-2.607-0.538-3.656-1.097-2.051-1.094-3.672-2.633-5.199-4.348-1.502-1.686-2.889-3.682-3.656-5.889-0.957-2.756-0.451-5.587 1.098-7.353 0.262-0.3 0.676-0.613 1.055-0.935 0.378-0.323 0.728-0.714 1.259-0.814z" fill="#959595"/></svg><svg xmlns:xlink="http://www.w3.org/1999/xlink" id="phone_hover" xml:space="preserve" height="40" viewBox="0 0 40 40" width="40" version="1.1" enable-background="new 0 0 40 40" y="676">					<path d="m20 2c9.925 0 18 8.075 18 18s-8.075 18-18 18c-9.925 0-18-8.075-18-18s8.075-18 18-18m0-2c-11.045 0-20 8.954-20 20 0 11.047 8.955 20 20 20 11.047 0 20-8.953 20-20 0-11.046-8.953-20-20-20z" fill="#f00"/>			<path fill-rule="evenodd" clip-rule="evenodd" d="m14.371 9.793c1.207-0.228 1.998 1.133 2.6 2.072 0.586 0.912 1.307 1.982 1.016 3.169-0.162 0.666-0.764 1.029-1.219 1.422-0.449 0.388-1.133 0.744-1.299 1.34-0.271 0.967 0.322 1.982 0.689 2.56 0.834 1.306 1.842 2.483 3.129 3.534 0.623 0.51 1.488 1.191 2.355 1.016 1.295-0.262 1.637-1.859 3.047-2.072 1.342-0.203 2.25 0.77 3.008 1.422 0.73 0.631 1.908 1.439 1.828 2.52-0.047 0.621-0.545 1.006-0.977 1.381-0.439 0.383-0.824 0.813-1.258 1.096-1.051 0.686-2.34 1.022-3.82 0.976-1.451-0.045-2.607-0.538-3.656-1.097-2.051-1.094-3.672-2.633-5.199-4.348-1.502-1.686-2.889-3.682-3.656-5.889-0.957-2.756-0.451-5.587 1.098-7.353 0.262-0.3 0.676-0.613 1.055-0.935 0.378-0.323 0.728-0.714 1.259-0.814z" fill="#f00"/></svg><svg xmlns:xlink="http://www.w3.org/1999/xlink" id="twitter" style="enable-background:new 0 0 67 67" xml:space="preserve" height="67" viewBox="0 0 67 67" width="67" version="1.1" y="716"><path fill-rule="evenodd" clip-rule="evenodd" d="m38.167 22.283c-2.619 0.953-4.274 3.411-4.086 6.101l0.063 1.038-1.048-0.127c-3.813-0.487-7.145-2.139-9.974-4.915l-1.383-1.377-0.356 1.017c-0.754 2.267-0.272 4.661 1.299 6.271 0.838 0.89 0.649 1.017-0.796 0.487-0.503-0.169-0.943-0.296-0.985-0.233-0.146 0.149 0.356 2.076 0.754 2.839 0.545 1.06 1.655 2.097 2.871 2.712l1.027 0.487-1.215 0.021c-1.173 0-1.215 0.021-1.089 0.467 0.419 1.377 2.074 2.839 3.918 3.475l1.299 0.444-1.131 0.678c-1.676 0.976-3.646 1.526-5.616 1.567-0.944 0.021-1.719 0.106-1.719 0.17 0 0.211 2.557 1.397 4.044 1.864 4.463 1.377 9.765 0.783 13.746-1.568 2.829-1.674 5.657-5 6.978-8.221 0.713-1.715 1.425-4.851 1.425-6.354 0-0.975 0.063-1.102 1.236-2.267 0.692-0.678 1.341-1.419 1.467-1.631 0.21-0.403 0.188-0.403-0.88-0.043-1.781 0.636-2.033 0.551-1.152-0.402 0.649-0.678 1.425-1.907 1.425-2.267 0-0.063-0.314 0.042-0.671 0.233-0.377 0.212-1.215 0.53-1.844 0.72l-1.131 0.361-1.027-0.7c-0.566-0.381-1.361-0.805-1.781-0.932-1.069-0.296-2.704-0.254-3.668 0.085zm-4.167 41.717c-16.568 0-30-13.432-30-30 0-16.569 13.432-30 30-30s30 13.431 30 30c0 16.568-13.432 30-30 30z" fill="#598DCA"/></svg></svg>
